<?xml version="1.0" encoding="UTF-8" standalone="no"?>
<!DOCTYPE svg PUBLIC "-//W3C//DTD SVG 1.1//EN" "http://www.w3.org/Graphics/SVG/1.1/DTD/svg11.dtd">
<svg version="1.1" xmlns="http://www.w3.org/2000/svg" xmlns:xlink="http://www.w3.org/1999/xlink" preserveAspectRatio="xMidYMid meet" viewBox="0 0 291 291" width="291" height="291"><defs><path d="M0.86 184.29C0.86 167.48 14.59 153.75 31.4 153.75C33.44 153.75 43.61 153.75 61.94 153.75C61.94 156.81 61.94 181.24 61.94 184.29C52.78 204.64 42.6 214.83 31.4 214.83C14.59 214.83 0.86 201.1 0.86 184.29Z" id="dijCReQdT"></path><path d="M0.86 184.29C0.86 167.48 14.59 153.75 31.4 153.75C33.44 153.75 43.61 153.75 61.94 153.75C61.94 156.81 61.94 181.24 61.94 184.29C52.78 204.64 42.6 214.83 31.4 214.83C14.59 214.83 0.86 201.1 0.86 184.29Z" id="h4jz2BBPU"></path><path d="M138.39 184.29C138.39 191.93 138.39 253.1 138.39 260.74C138.39 277.55 124.66 291.28 107.85 291.28C91.04 291.28 77.31 277.55 77.31 260.74C77.31 260.74 77.31 184.29 77.31 184.29C77.31 167.48 91.04 153.75 107.85 153.75C124.66 153.75 138.39 167.48 138.39 184.29Z" id="i5pGHiPumx"></path><path d="M138.39 184.29C138.39 191.93 138.39 253.1 138.39 260.74C138.39 277.55 124.66 291.28 107.85 291.28C91.04 291.28 77.31 277.55 77.31 260.74C77.31 260.74 77.31 184.29 77.31 184.29C77.31 167.48 91.04 153.75 107.85 153.75C124.66 153.75 138.39 167.48 138.39 184.29Z" id="amxXPJ5R3"></path><path d="M107.85 0.62C124.66 0.62 138.39 14.35 138.39 31.15C138.39 33.18 138.39 43.36 138.39 61.68C135.33 61.68 110.9 61.68 107.85 61.68C87.5 52.53 77.31 42.36 77.31 31.15C77.31 14.35 91.04 0.62 107.85 0.62Z" id="a9pQMR8UPT"></path><path d="M107.85 0.62C124.66 0.62 138.39 14.35 138.39 31.15C138.39 33.18 138.39 43.36 138.39 61.68C135.33 61.68 110.9 61.68 107.85 61.68C87.5 52.53 77.31 42.36 77.31 31.15C77.31 14.35 91.04 0.62 107.85 0.62Z" id="c3sbtQle69"></path><path d="M107.85 138.14C100.21 138.14 39.05 138.14 31.4 138.14C14.59 138.14 0.86 124.41 0.86 107.6C0.86 90.8 14.59 77.07 31.4 77.07C31.4 77.07 107.85 77.07 107.85 77.07C124.66 77.07 138.39 90.8 138.39 107.6C138.39 124.41 124.66 138.14 107.85 138.14Z" id="ctIhOnGhZ"></path><path d="M107.85 138.14C100.21 138.14 39.05 138.14 31.4 138.14C14.59 138.14 0.86 124.41 0.86 107.6C0.86 90.8 14.59 77.07 31.4 77.07C31.4 77.07 107.85 77.07 107.85 77.07C124.66 77.07 138.39 90.8 138.39 107.6C138.39 124.41 124.66 138.14 107.85 138.14Z" id="dp32HcqYd"></path><path d="M291.52 107.6C291.52 124.41 277.79 138.14 260.99 138.14C258.96 138.14 248.78 138.14 230.46 138.14C230.46 135.08 230.46 110.65 230.46 107.6C239.61 87.24 249.78 77.07 260.99 77.07C277.79 77.07 291.52 90.8 291.52 107.6Z" id="e1O5wTxsVc"></path><path d="M291.52 107.6C291.52 124.41 277.79 138.14 260.99 138.14C258.96 138.14 248.78 138.14 230.46 138.14C230.46 135.08 230.46 110.65 230.46 107.6C239.61 87.24 249.78 77.07 260.99 77.07C277.79 77.07 291.52 90.8 291.52 107.6Z" id="b6Ccc0tKO"></path><path d="M154 107.6C154 99.95 154 38.79 154 31.15C154 14.35 167.73 0.62 184.54 0.62C201.34 0.62 215.07 14.35 215.07 31.15C215.07 36.24 215.07 61.73 215.07 107.6C205.92 127.95 195.74 138.14 184.54 138.14C167.73 138.14 154 124.41 154 107.6Z" id="b1kcIgQP7u"></path><path d="M154 107.6C154 99.95 154 38.79 154 31.15C154 14.35 167.73 0.62 184.54 0.62C201.34 0.62 215.07 14.35 215.07 31.15C215.07 36.24 215.07 61.73 215.07 107.6C205.92 127.95 195.74 138.14 184.54 138.14C167.73 138.14 154 124.41 154 107.6Z" id="a1Ougl1DAT"></path><path d="M184.54 291.28C167.73 291.28 154 277.55 154 260.74C154 258.7 154 248.53 154 230.2C157.06 230.2 181.48 230.2 184.54 230.2C204.9 239.36 215.07 249.54 215.07 260.74C215.07 277.55 201.34 291.28 184.54 291.28Z" id="aCiTahq1n"></path><path d="M184.54 291.28C167.73 291.28 154 277.55 154 260.74C154 258.7 154 248.53 154 230.2C157.06 230.2 181.48 230.2 184.54 230.2C204.9 239.36 215.07 249.54 215.07 260.74C215.07 277.55 201.34 291.28 184.54 291.28Z" id="f1zmUloiR"></path><path d="M184.54 153.75C192.19 153.75 253.35 153.75 260.99 153.75C277.79 153.75 291.52 167.48 291.52 184.29C291.52 201.1 277.79 214.83 260.99 214.83C255.9 214.83 230.41 214.83 184.54 214.83C164.19 205.67 154 195.49 154 184.29C154 167.48 167.73 153.75 184.54 153.75Z" id="bLEVNF2fE"></path><path d="M184.54 153.75C192.19 153.75 253.35 153.75 260.99 153.75C277.79 153.75 291.52 167.48 291.52 184.29C291.52 201.1 277.79 214.83 260.99 214.83C255.9 214.83 230.41 214.83 184.54 214.83C164.19 205.67 154 195.49 154 184.29C154 167.48 167.73 153.75 184.54 153.75Z" id="d5wSTI8ju"></path></defs><g><g><g><use xlink:href="#dijCReQdT" opacity="1" fill="#e5e5e5" fill-opacity="1"></use><g><use xlink:href="#dijCReQdT" opacity="1" fill-opacity="0" stroke="#000000" stroke-width="1" stroke-opacity="0"></use></g></g><g><use xlink:href="#h4jz2BBPU" opacity="1" fill="#e5e5e5" fill-opacity="1"></use><g><use xlink:href="#h4jz2BBPU" opacity="1" fill-opacity="0" stroke="#000000" stroke-width="1" stroke-opacity="0"></use></g></g><g><use xlink:href="#i5pGHiPumx" opacity="1" fill="#e5e5e5" fill-opacity="1"></use><g><use xlink:href="#i5pGHiPumx" opacity="1" fill-opacity="0" stroke="#000000" stroke-width="1" stroke-opacity="0"></use></g></g><g><use xlink:href="#amxXPJ5R3" opacity="1" fill="#e5e5e5" fill-opacity="1"></use><g><use xlink:href="#amxXPJ5R3" opacity="1" fill-opacity="0" stroke="#000000" stroke-width="1" stroke-opacity="0"></use></g></g><g><use xlink:href="#a9pQMR8UPT" opacity="1" fill="#e5e5e5" fill-opacity="1"></use><g><use xlink:href="#a9pQMR8UPT" opacity="1" fill-opacity="0" stroke="#000000" stroke-width="1" stroke-opacity="0"></use></g></g><g><use xlink:href="#c3sbtQle69" opacity="1" fill="#e5e5e5" fill-opacity="1"></use><g><use xlink:href="#c3sbtQle69" opacity="1" fill-opacity="0" stroke="#000000" stroke-width="1" stroke-opacity="0"></use></g></g><g><use xlink:href="#ctIhOnGhZ" opacity="1" fill="#e5e5e5" fill-opacity="1"></use><g><use xlink:href="#ctIhOnGhZ" opacity="1" fill-opacity="0" stroke="#000000" stroke-width="1" stroke-opacity="0"></use></g></g><g><use xlink:href="#dp32HcqYd" opacity="1" fill="#e5e5e5" fill-opacity="1"></use><g><use xlink:href="#dp32HcqYd" opacity="1" fill-opacity="0" stroke="#000000" stroke-width="1" stroke-opacity="0"></use></g></g><g><use xlink:href="#e1O5wTxsVc" opacity="1" fill="#e5e5e5" fill-opacity="1"></use><g><use xlink:href="#e1O5wTxsVc" opacity="1" fill-opacity="0" stroke="#000000" stroke-width="1" stroke-opacity="0"></use></g></g><g><use xlink:href="#b6Ccc0tKO" opacity="1" fill="#e5e5e5" fill-opacity="1"></use><g><use xlink:href="#b6Ccc0tKO" opacity="1" fill-opacity="0" stroke="#000000" stroke-width="1" stroke-opacity="0"></use></g></g><g><use xlink:href="#b1kcIgQP7u" opacity="1" fill="#e5e5e5" fill-opacity="1"></use><g><use xlink:href="#b1kcIgQP7u" opacity="1" fill-opacity="0" stroke="#000000" stroke-width="1" stroke-opacity="0"></use></g></g><g><use xlink:href="#a1Ougl1DAT" opacity="1" fill="#e5e5e5" fill-opacity="1"></use><g><use xlink:href="#a1Ougl1DAT" opacity="1" fill-opacity="0" stroke="#000000" stroke-width="1" stroke-opacity="0"></use></g></g><g><use xlink:href="#aCiTahq1n" opacity="1" fill="#e5e5e5" fill-opacity="1"></use><g><use xlink:href="#aCiTahq1n" opacity="1" fill-opacity="0" stroke="#000000" stroke-width="1" stroke-opacity="0"></use></g></g><g><use xlink:href="#f1zmUloiR" opacity="1" fill="#e5e5e5" fill-opacity="1"></use><g><use xlink:href="#f1zmUloiR" opacity="1" fill-opacity="0" stroke="#000000" stroke-width="1" stroke-opacity="0"></use></g></g><g><use xlink:href="#bLEVNF2fE" opacity="1" fill="#e5e5e5" fill-opacity="1"></use><g><use xlink:href="#bLEVNF2fE" opacity="1" fill-opacity="0" stroke="#000000" stroke-width="1" stroke-opacity="0"></use></g></g><g><use xlink:href="#d5wSTI8ju" opacity="1" fill="#e5e5e5" fill-opacity="1"></use><g><use xlink:href="#d5wSTI8ju" opacity="1" fill-opacity="0" stroke="#000000" stroke-width="1" stroke-opacity="0"></use></g></g></g></g></svg>