<?xml version="1.0" encoding="UTF-8" standalone="no"?>
<!DOCTYPE svg PUBLIC "-//W3C//DTD SVG 1.1//EN" "http://www.w3.org/Graphics/SVG/1.1/DTD/svg11.dtd">
<svg version="1.1" xmlns="http://www.w3.org/2000/svg" xmlns:xlink="http://www.w3.org/1999/xlink" preserveAspectRatio="xMidYMid meet" viewBox="0 0 297.43 297.43" width="297.43" height="297.43"><defs><path d="M34.45 217.14C17.62 217.14 3.87 203.39 3.87 186.56C3.87 169.73 17.62 155.98 34.45 155.98C36.49 155.98 46.68 155.98 65.03 155.98L65.03 186.56C55.86 206.94 45.67 217.14 34.45 217.14Z" id="bJ9w8ysY6"></path><path d="M111.01 155.98C127.84 155.98 141.59 169.73 141.59 186.56C141.59 194.21 141.59 255.47 141.59 263.12C141.59 279.95 127.84 293.7 111.01 293.7C94.18 293.7 80.43 279.95 80.43 263.12C80.43 263.12 80.43 186.56 80.43 186.56C80.43 169.73 94.18 155.98 111.01 155.98Z" id="n5LAoCpEe"></path><path d="M80.43 33.2C80.43 16.37 94.18 2.62 111.01 2.62C127.84 2.62 141.59 16.37 141.59 33.2C141.59 35.23 141.59 45.43 141.59 63.77L111.01 63.77C90.63 54.61 80.43 44.42 80.43 33.2Z" id="g17kYqJ6JP"></path><path d="M141.59 109.76C141.59 126.59 127.84 140.34 111.01 140.34C103.36 140.34 42.11 140.34 34.45 140.34C17.62 140.34 3.87 126.59 3.87 109.76C3.87 92.93 17.62 79.18 34.45 79.18C34.45 79.18 111.01 79.18 111.01 79.18C127.84 79.18 141.59 92.93 141.59 109.76Z" id="a1EwRrMHqq"></path><path d="M264.37 79.18C281.2 79.18 294.95 92.93 294.95 109.76C294.95 126.59 281.2 140.34 264.37 140.34C262.34 140.34 252.14 140.34 233.8 140.34L233.8 109.76C242.96 89.37 253.15 79.18 264.37 79.18Z" id="b1t7lDXLAb"></path><path d="M187.81 140.34C170.98 140.34 157.23 126.59 157.23 109.76C157.23 102.1 157.23 40.85 157.23 33.2C157.23 16.37 170.98 2.62 187.81 2.62C204.64 2.62 218.39 16.37 218.39 33.2C218.39 38.3 218.39 63.82 218.39 109.76C209.22 130.14 199.03 140.34 187.81 140.34Z" id="k21Nb3t9Gq"></path><path d="M218.39 263.12C218.39 279.95 204.64 293.7 187.81 293.7C170.98 293.7 157.23 279.95 157.23 263.12C157.23 261.08 157.23 250.89 157.23 232.54L187.81 232.54C208.2 241.71 218.39 251.9 218.39 263.12Z" id="b106LISP7F"></path><path d="M157.23 186.56C157.23 169.73 170.98 155.98 187.81 155.98C195.47 155.98 256.72 155.98 264.37 155.98C281.2 155.98 294.95 169.73 294.95 186.56C294.95 203.39 281.2 217.14 264.37 217.14C259.27 217.14 233.75 217.14 187.81 217.14C167.43 207.97 157.23 197.78 157.23 186.56Z" id="b3bGUYVnrH"></path></defs><g><g><g><use xlink:href="#bJ9w8ysY6" opacity="1" fill="#ffffff" fill-opacity="1"></use><g><use xlink:href="#bJ9w8ysY6" opacity="1" fill-opacity="0" stroke="#000000" stroke-width="1" stroke-opacity="0"></use></g></g><g><use xlink:href="#n5LAoCpEe" opacity="1" fill="#ffffff" fill-opacity="1"></use><g><use xlink:href="#n5LAoCpEe" opacity="1" fill-opacity="0" stroke="#000000" stroke-width="1" stroke-opacity="0"></use></g></g><g><use xlink:href="#g17kYqJ6JP" opacity="1" fill="#ffffff" fill-opacity="1"></use><g><use xlink:href="#g17kYqJ6JP" opacity="1" fill-opacity="0" stroke="#000000" stroke-width="1" stroke-opacity="0"></use></g></g><g><use xlink:href="#a1EwRrMHqq" opacity="1" fill="#ffffff" fill-opacity="1"></use><g><use xlink:href="#a1EwRrMHqq" opacity="1" fill-opacity="0" stroke="#000000" stroke-width="1" stroke-opacity="0"></use></g></g><g><use xlink:href="#b1t7lDXLAb" opacity="1" fill="#ffffff" fill-opacity="1"></use><g><use xlink:href="#b1t7lDXLAb" opacity="1" fill-opacity="0" stroke="#000000" stroke-width="1" stroke-opacity="0"></use></g></g><g><use xlink:href="#k21Nb3t9Gq" opacity="1" fill="#ffffff" fill-opacity="1"></use><g><use xlink:href="#k21Nb3t9Gq" opacity="1" fill-opacity="0" stroke="#000000" stroke-width="1" stroke-opacity="0"></use></g></g><g><use xlink:href="#b106LISP7F" opacity="1" fill="#ffffff" fill-opacity="1"></use><g><use xlink:href="#b106LISP7F" opacity="1" fill-opacity="0" stroke="#000000" stroke-width="1" stroke-opacity="0"></use></g></g><g><use xlink:href="#b3bGUYVnrH" opacity="1" fill="#ffffff" fill-opacity="1"></use><g><use xlink:href="#b3bGUYVnrH" opacity="1" fill-opacity="0" stroke="#000000" stroke-width="1" stroke-opacity="0"></use></g></g></g></g></svg>