<svg xmlns="http://www.w3.org/2000/svg" width="423.478" height="419.027" viewBox="0 0 423.478 419.027">
  <g id="Ellipse_5" data-name="Ellipse 5" fill="#002944" stroke="#a0d1fb" stroke-width="12">
    <ellipse cx="211.739" cy="209.514" rx="211.739" ry="209.514" stroke="none"/>
    <ellipse cx="211.739" cy="209.514" rx="205.739" ry="203.514" fill="none"/>
  </g>
  <path id="ellipse-5" d="M12.9,0c7.126,0,12.9,14.57,12.9,32.543S20.029,65.087,12.9,65.087,0,50.517,0,32.543,5.777,0,12.9,0Z" transform="translate(287.031 67.909) rotate(-31.961)" fill="#a0d1fb" stroke="#a0d1fb" stroke-width="1.5"/>
  <path id="Path_4" data-name="Path 4" d="M21.716,324.251l.591-.58L252.78,172.586l33.844,55.828-1.578.96L29.713,338.068Z" transform="translate(44.874 -111.471)" fill="#a0d1fb" stroke="#a0d1fb" stroke-width="1"/>
  <path id="ellipse-6" d="M6.165,0c3.4,0,6.165,3.555,6.165,7.94s-2.76,7.94-6.165,7.94S0,12.326,0,7.94,2.76,0,6.165,0Z" transform="translate(62.1 215.646) rotate(-31.961)" fill="#a0d1fb" stroke="#a0d1fb" stroke-width="1.5"/>
  <rect id="rect-4" width="43.004" height="198.626" transform="translate(183.292 161.552)" fill="#a0d1fb" stroke="#a0d1fb" stroke-width="1.5"/>
  <path id="Path_7" data-name="Path 7" d="M22.4,0c12.37,0,22.4,1.763,22.4,3.937S34.768,7.874,22.4,7.874,0,6.111,0,3.937,10.028,0,22.4,0Z" transform="translate(182.393 356.905)" fill="#a0d1fb"/>
  <path id="ellipse-8" d="M11.088,0c6.124,0,11.088,13.552,11.088,30.268S17.212,60.537,11.088,60.537,0,46.985,0,30.268,4.964,0,11.088,0Z" transform="matrix(0.858, -0.513, 0.513, 0.858, 288.872, 71.496)" fill="#002944" stroke="#a0d1fb" stroke-width="1.5"/>
</svg>
