<svg id="Layer_1" data-name="Layer 1" xmlns="http://www.w3.org/2000/svg" viewBox="0 0 500 500"><defs><style>.cls-1{fill:#da291c;}.cls-2{fill:none;stroke:#da291c;stroke-miterlimit:10;stroke-width:20px;}</style></defs><title>telescope_new</title><path class="cls-1" d="M193.34,379.16a7.12,7.12,0,0,0,8.68-4.62l25.63-86.18,18.08-10.55,39.83,99.26a7,7,0,0,0,7.22,3.24,9.94,9.94,0,0,0,2.45-.91,7.2,7.2,0,0,0,2.56-9.71L254.52,264.4a7.24,7.24,0,0,0-9.48-2.6l-26.49,15.35a8.25,8.25,0,0,0-3.3,4.14l-26.34,88.91A6.78,6.78,0,0,0,193.34,379.16Z"/><path class="cls-1" d="M330.23,117.74a49.05,49.05,0,0,0-14.65-1l-3.53.15-.23,0-.69.12-.69.12-.46.08c-.23,0-.65.35-.88.39l-.23,0L229.2,164a6.84,6.84,0,0,0-2.6,9.48l7.85,13.57-60.32,34.85a6.84,6.84,0,0,0-2.6,9.48L179.39,245l-40.94,23.6-3.79-6.69a7,7,0,0,0-12.08,6.88l15.08,26.3a7,7,0,0,0,7.26,3.47,8.31,8.31,0,0,0,2.22-.87,6.84,6.84,0,0,0,2.6-9.48l-4.1-7.11,40.94-23.6,7.85,13.57a7,7,0,0,0,7.26,3.47,8.31,8.31,0,0,0,2.22-.87l60.32-34.85,7.85,13.57a7,7,0,0,0,7.26,3.47,8.31,8.31,0,0,0,2.22-.87l79.51-45.83.23,0c.23,0,.42-.31.65-.35s.42-.31.65-.35.19-.27.38-.54.42-.31.61-.58a.23.23,0,0,0,.19-.27l2.09-3a55.42,55.42,0,0,0,1.9-59.21C355.84,122.76,330.23,117.74,330.23,117.74Zm22.55,28C359.35,157.38,363,177,358,189l-33.48-58a11.06,11.06,0,0,1,2.93.43C342.82,131.95,352.78,145.72,352.78,145.72Zm-43-12,38.6,66.78-67.43,39-7.85-13.57h0l-22.85-39.41h0l-7.89-13.8ZM241.6,199.36l15.75,27.37-54.28,31.41-7.89-13.8h0l-7.85-13.57Z"/><ellipse class="cls-2" cx="250" cy="250" rx="211" ry="205"/></svg>