<svg xmlns="http://www.w3.org/2000/svg" viewBox="0 0 423.478 419.027">
  <defs/>
  <g fill="#121d59" data-name="Path 24">
    <path d="M211.73875427 413.0272522c-113.44476318 0-205.73876476-91.29580689-205.73876476-203.51364136 0-112.2177658 92.29400158-203.51358843 205.73876476-203.51358843 113.44477844 0 205.73875427 91.29582262 205.73875427 203.51358843 0 112.21783447-92.29397583 203.51364136-205.73875427 203.51364136z"/>
    <path fill="#a0d1fb" d="M211.73875427 12C101.602417 12 12.00003052 100.60421753 12.00003052 209.51361084c0 108.90939331 89.60238647 197.51361084 199.73872375 197.51361084 110.13633728 0 199.73872376-88.60421753 199.73872376-197.51361084C411.47747803 100.60421753 321.87509155 12 211.73875427 12m0-12c116.94007874 0 211.73872376 93.80249023 211.73872376 209.51361084 0 115.7111206-94.79864502 209.51361084-211.73872376 209.51361084-116.94007873 0-211.73872375-93.80249023-211.73872375-209.51361084C.00003052 93.80249024 94.79867554 0 211.73875427 0z"/>
  </g>
  <path fill="#a0d1fb" stroke="#a0d1fb" stroke-width="1.5" d="M297.975471 61.08048957c6.0457597-3.77209033 18.65698238 5.53280294 28.17084423 20.78125079s12.33073653 30.66544168 6.28243159 34.43912004-18.65698239-5.53280294-28.17137358-20.7820992-12.32511673-30.66776932-6.28190224-34.43827163z"/>
  <path fill="#a0d1fb" stroke="#a0d1fb" d="M66.59 212.78l.591-.58L297.654 61.115l33.844 55.828-1.578.96L74.587 226.597z" data-name="Path 4"/>
  <path fill="#a0d1fb" stroke="#a0d1fb" stroke-width="1.5" d="M67.33043905 212.38360723c2.88458925-1.79976244 7.11224947-.24730019 9.43341367 3.47297154s1.8613669 8.19734795-1.0274644 9.9997571-7.11172014.24814859-9.43341369-3.47297155-1.86136688-8.19734795 1.02746442-9.9997571zM183.293 161.552h43.004v198.626h-43.004z"/>
  <path fill="#a0d1fb" d="M204.793 356.905c12.37 0 22.4 1.763 22.4 3.937s-10.032 3.937-22.4 3.937-22.4-1.763-22.4-3.937 10.028-3.937 22.4-3.937z" data-name="Path 7"/>
  <path fill="#121d59" stroke="#a0d1fb" stroke-width="1.4995049999999999" d="M298.385504 65.808856c5.254392-3.141612 16.46568 5.939472 25.040988 20.2818s11.268885 28.517334 6.014493 31.658946-16.46568-5.939472-25.041501-20.282658-11.268372-28.516476-6.01398-31.658088z"/>
</svg>
